<mxfile host="app.diagrams.net" agent="Mozilla/5.0 (Windows NT 10.0; Win64; x64) AppleWebKit/537.36 (KHTML, like Gecko) Chrome/130.0.0.0 Safari/537.36 Edg/130.0.0.0" version="24.8.2">
  <diagram name="ページ1" id="reqYG7FTRviJvczHSfPr">
    <mxGraphModel dx="695" dy="418" grid="1" gridSize="10" guides="1" tooltips="1" connect="1" arrows="1" fold="1" page="1" pageScale="1" pageWidth="827" pageHeight="1169" math="0" shadow="0">
      <root>
        <mxCell id="0" />
        <mxCell id="1" parent="0" />
        <mxCell id="MnZCUGDg8ahDTnEChyv2-1" value="" style="rounded=1;whiteSpace=wrap;html=1;" vertex="1" parent="1">
          <mxGeometry x="290" y="310" width="120" height="60" as="geometry" />
        </mxCell>
        <mxCell id="MnZCUGDg8ahDTnEChyv2-6" value="" style="edgeStyle=orthogonalEdgeStyle;rounded=0;orthogonalLoop=1;jettySize=auto;html=1;" edge="1" parent="1" source="MnZCUGDg8ahDTnEChyv2-2" target="MnZCUGDg8ahDTnEChyv2-5">
          <mxGeometry relative="1" as="geometry" />
        </mxCell>
        <mxCell id="MnZCUGDg8ahDTnEChyv2-2" value="ユーザー入力を&lt;div&gt;求める&lt;/div&gt;" style="rounded=1;whiteSpace=wrap;html=1;" vertex="1" parent="1">
          <mxGeometry x="290" y="310" width="120" height="60" as="geometry" />
        </mxCell>
        <mxCell id="MnZCUGDg8ahDTnEChyv2-4" value="" style="edgeStyle=orthogonalEdgeStyle;rounded=0;orthogonalLoop=1;jettySize=auto;html=1;" edge="1" parent="1" source="MnZCUGDg8ahDTnEChyv2-3" target="MnZCUGDg8ahDTnEChyv2-2">
          <mxGeometry relative="1" as="geometry" />
        </mxCell>
        <mxCell id="MnZCUGDg8ahDTnEChyv2-3" value="ランダムな値を生成" style="rounded=1;whiteSpace=wrap;html=1;" vertex="1" parent="1">
          <mxGeometry x="290" y="200" width="120" height="60" as="geometry" />
        </mxCell>
        <mxCell id="MnZCUGDg8ahDTnEChyv2-8" value="" style="edgeStyle=orthogonalEdgeStyle;rounded=0;orthogonalLoop=1;jettySize=auto;html=1;" edge="1" parent="1" source="MnZCUGDg8ahDTnEChyv2-5" target="MnZCUGDg8ahDTnEChyv2-7">
          <mxGeometry relative="1" as="geometry" />
        </mxCell>
        <mxCell id="MnZCUGDg8ahDTnEChyv2-10" style="edgeStyle=orthogonalEdgeStyle;rounded=0;orthogonalLoop=1;jettySize=auto;html=1;entryX=0.5;entryY=0;entryDx=0;entryDy=0;" edge="1" parent="1" source="MnZCUGDg8ahDTnEChyv2-5" target="MnZCUGDg8ahDTnEChyv2-9">
          <mxGeometry relative="1" as="geometry" />
        </mxCell>
        <mxCell id="MnZCUGDg8ahDTnEChyv2-11" value="一致しない" style="edgeLabel;html=1;align=center;verticalAlign=middle;resizable=0;points=[];" vertex="1" connectable="0" parent="MnZCUGDg8ahDTnEChyv2-10">
          <mxGeometry x="-0.5649" y="-1" relative="1" as="geometry">
            <mxPoint as="offset" />
          </mxGeometry>
        </mxCell>
        <mxCell id="MnZCUGDg8ahDTnEChyv2-5" value="ユーザー&lt;div&gt;入力と比較&lt;/div&gt;" style="rhombus;whiteSpace=wrap;html=1;" vertex="1" parent="1">
          <mxGeometry x="310" y="410" width="80" height="80" as="geometry" />
        </mxCell>
        <mxCell id="MnZCUGDg8ahDTnEChyv2-7" value="&quot;correct!&quot; と表示" style="rounded=1;whiteSpace=wrap;html=1;" vertex="1" parent="1">
          <mxGeometry x="290" y="520" width="120" height="60" as="geometry" />
        </mxCell>
        <mxCell id="MnZCUGDg8ahDTnEChyv2-9" value="&quot;miss!&quot; と表示" style="rounded=1;whiteSpace=wrap;html=1;" vertex="1" parent="1">
          <mxGeometry x="450" y="520" width="120" height="60" as="geometry" />
        </mxCell>
        <mxCell id="MnZCUGDg8ahDTnEChyv2-13" style="edgeStyle=orthogonalEdgeStyle;rounded=0;orthogonalLoop=1;jettySize=auto;html=1;entryX=0;entryY=0.5;entryDx=0;entryDy=0;" edge="1" parent="1" source="MnZCUGDg8ahDTnEChyv2-12" target="MnZCUGDg8ahDTnEChyv2-3">
          <mxGeometry relative="1" as="geometry">
            <Array as="points">
              <mxPoint x="190" y="230" />
            </Array>
          </mxGeometry>
        </mxCell>
        <mxCell id="MnZCUGDg8ahDTnEChyv2-12" value="最大値と最小値を&lt;div&gt;設定&lt;/div&gt;" style="rounded=1;whiteSpace=wrap;html=1;" vertex="1" parent="1">
          <mxGeometry x="130" y="120" width="120" height="60" as="geometry" />
        </mxCell>
        <mxCell id="MnZCUGDg8ahDTnEChyv2-15" style="edgeStyle=orthogonalEdgeStyle;rounded=0;orthogonalLoop=1;jettySize=auto;html=1;entryX=1;entryY=0.5;entryDx=0;entryDy=0;" edge="1" parent="1" source="MnZCUGDg8ahDTnEChyv2-14" target="MnZCUGDg8ahDTnEChyv2-3">
          <mxGeometry relative="1" as="geometry">
            <Array as="points">
              <mxPoint x="510" y="230" />
            </Array>
          </mxGeometry>
        </mxCell>
        <mxCell id="MnZCUGDg8ahDTnEChyv2-14" value="シード値を時間依存で設定" style="rounded=1;whiteSpace=wrap;html=1;" vertex="1" parent="1">
          <mxGeometry x="450" y="120" width="120" height="60" as="geometry" />
        </mxCell>
      </root>
    </mxGraphModel>
  </diagram>
</mxfile>
